<svg width="30" height="31" viewBox="0 0 30 31" fill="none" xmlns="http://www.w3.org/2000/svg">
<path d="M26.25 20.5V10.5C26.2496 10.0616 26.1338 9.63101 25.9144 9.25145C25.695 8.87189 25.3797 8.5567 25 8.3375L16.25 3.3375C15.87 3.11808 15.4388 3.00256 15 3.00256C14.5612 3.00256 14.13 3.11808 13.75 3.3375L5 8.3375C4.62033 8.5567 4.30498 8.87189 4.08558 9.25145C3.86618 9.63101 3.75045 10.0616 3.75 10.5V20.5C3.75045 20.9384 3.86618 21.369 4.08558 21.7485C4.30498 22.1281 4.62033 22.4433 5 22.6625L13.75 27.6625C14.13 27.8819 14.5612 27.9974 15 27.9974C15.4388 27.9974 15.87 27.8819 16.25 27.6625L25 22.6625C25.3797 22.4433 25.695 22.1281 25.9144 21.7485C26.1338 21.369 26.2496 20.9384 26.25 20.5Z" stroke="#FEA000" stroke-width="2" stroke-linecap="round" stroke-linejoin="round"/>
<path d="M4.08752 9.19995L15 15.5125L25.9125 9.19995" stroke="#FEA000" stroke-width="2" stroke-linecap="round" stroke-linejoin="round"/>
<path d="M15 28.1V15.5" stroke="#FEA000" stroke-width="2" stroke-linecap="round" stroke-linejoin="round"/>
</svg>
