<svg width="30" height="31" viewBox="0 0 30 31" fill="none" xmlns="http://www.w3.org/2000/svg">
<path d="M25 11.75H13.75C12.3693 11.75 11.25 12.8693 11.25 14.25V25.5C11.25 26.8807 12.3693 28 13.75 28H25C26.3807 28 27.5 26.8807 27.5 25.5V14.25C27.5 12.8693 26.3807 11.75 25 11.75Z" stroke="#EF3E8B" stroke-width="2" stroke-linecap="round" stroke-linejoin="round"/>
<path d="M6.25 19.25H5C4.33696 19.25 3.70107 18.9866 3.23223 18.5178C2.76339 18.0489 2.5 17.413 2.5 16.75V5.5C2.5 4.83696 2.76339 4.20107 3.23223 3.73223C3.70107 3.26339 4.33696 3 5 3H16.25C16.913 3 17.5489 3.26339 18.0178 3.73223C18.4866 4.20107 18.75 4.83696 18.75 5.5V6.75" stroke="#EF3E8B" stroke-width="2" stroke-linecap="round" stroke-linejoin="round"/>
</svg>
