<svg width="595" height="290" viewBox="0 0 595 290" fill="none" xmlns="http://www.w3.org/2000/svg">
<g clip-path="url(#clip0_1101_1643)">
<path d="M140.729 185.71C141.202 185.306 141.568 184.794 141.797 184.216C142.025 183.639 142.109 183.014 142.041 182.397C139.357 158.155 128.3 133.2 111.052 124.044C93.3256 114.635 81.2424 140.752 105.805 165.02C124.298 183.289 134.183 186.256 137.929 186.619C138.432 186.664 138.939 186.608 139.42 186.453C139.901 186.299 140.346 186.049 140.729 185.72V185.71Z" fill="#FEA000"/>
<path d="M96.6718 126.202C96.6718 126.202 127.694 156.916 140.106 184.817" stroke="#2E186A" stroke-width="1.74194" stroke-linecap="round" stroke-linejoin="round"/>
<path d="M102.172 159.527C102.172 159.527 114.921 159.087 128.663 165.024" stroke="#2E186A" stroke-width="1.74194" stroke-linecap="round" stroke-linejoin="round"/>
<path d="M117.039 129.238C117.039 129.238 132.572 156.74 131.426 168.556" stroke="#2E186A" stroke-width="1.74194" stroke-linecap="round" stroke-linejoin="round"/>
<path d="M117.732 174.543C117.732 174.543 129.365 174.11 136.94 178.768" stroke="#2E186A" stroke-width="1.74194" stroke-linecap="round" stroke-linejoin="round"/>
<path d="M162.638 163.535C163.97 164.444 165.478 164.601 166.673 163.948C189.811 151.369 209.326 127.89 209.625 102.539C209.958 76.4856 177.238 71.0186 165.435 111.389C156.551 141.767 158.669 155.425 160.261 160.332C160.679 161.632 161.508 162.759 162.625 163.545L162.638 163.535Z" fill="#FEA000"/>
<path d="M164.126 164.311C164.126 164.311 173.549 100.818 200.639 86.3509" stroke="#2E186A" stroke-width="1.74194" stroke-linecap="round" stroke-linejoin="round"/>
<path d="M208.297 106.454C202.36 109.095 181.25 118.85 173.199 127.593" stroke="#2E186A" stroke-width="1.74194" stroke-linecap="round" stroke-linejoin="round"/>
<path d="M166.793 111.086C165.954 120.035 165.128 135.617 168.858 140.505" stroke="#2E186A" stroke-width="1.74194" stroke-linecap="round" stroke-linejoin="round"/>
<path d="M167.599 150.207C167.599 150.207 188.446 143.142 197.815 135.651" stroke="#2E186A" stroke-width="1.74194" stroke-linecap="round" stroke-linejoin="round"/>
<path d="M158.176 201.738C158.176 201.738 163.504 182.707 179.686 181.325" stroke="#2E186A" stroke-width="1.74194" stroke-linecap="round" stroke-linejoin="round"/>
<path d="M180.072 180.912C181.231 180.753 181.777 177.773 181.293 174.258C180.809 170.742 179.477 168.021 178.319 168.181C177.16 168.34 176.613 171.32 177.098 174.835C177.582 178.351 178.913 181.072 180.072 180.912Z" fill="#EF3E8B"/>
<path d="M185.88 178.693C188.41 176.636 189.911 174.294 189.234 173.461C188.557 172.627 185.957 173.619 183.427 175.676C180.897 177.732 179.395 180.075 180.073 180.908C180.75 181.741 183.35 180.75 185.88 178.693Z" fill="#EF3E8B"/>
<path d="M180.064 180.774C180.601 179.735 178.48 177.572 175.327 175.943C172.173 174.315 169.182 173.837 168.645 174.876C168.109 175.915 170.23 178.077 173.383 179.706C176.536 181.335 179.527 181.813 180.064 180.774Z" fill="#EF3E8B"/>
<path d="M190.455 186.52C190.966 185.575 189.054 183.553 186.186 182.003C183.317 180.453 180.578 179.963 180.068 180.908C179.557 181.853 181.469 183.875 184.337 185.424C187.206 186.974 189.945 187.464 190.455 186.52Z" fill="#EF3E8B"/>
<path d="M179.353 187.086C180.722 184.127 181.042 181.363 180.068 180.912C179.093 180.461 177.193 182.494 175.823 185.452C174.454 188.411 174.133 191.175 175.108 191.626C176.083 192.077 177.983 190.045 179.353 187.086Z" fill="#EF3E8B"/>
<path d="M126.908 105.605C126.908 105.605 164.369 135.218 147.735 202.494" stroke="#2E186A" stroke-width="1.74194" stroke-linecap="round" stroke-linejoin="round"/>
<path d="M129.843 107.644C131.836 106.481 131.525 102.238 129.149 98.1681C126.772 94.0981 123.23 91.7421 121.237 92.9057C119.244 94.0693 119.555 98.312 121.932 102.382C124.308 106.452 127.85 108.808 129.843 107.644Z" fill="#EF3E8B"/>
<path d="M130.368 107.604C130.414 105.297 126.631 103.35 121.919 103.256C117.207 103.163 113.35 104.957 113.304 107.264C113.258 109.572 117.041 111.518 121.753 111.612C126.465 111.706 130.322 109.911 130.368 107.604Z" fill="#EF3E8B"/>
<path d="M137.965 103.97C140.507 100.615 141.235 96.886 139.592 95.6412C137.949 94.3963 134.557 96.1068 132.015 99.4617C129.473 102.817 128.744 106.545 130.387 107.79C132.03 109.035 135.423 107.325 137.965 103.97Z" fill="#EF3E8B"/>
<path d="M133.883 119.856C135.76 119.003 135.869 115.205 134.126 111.373C132.384 107.542 129.451 105.127 127.574 105.98C125.698 106.833 125.589 110.631 127.331 114.463C129.073 118.294 132.007 120.709 133.883 119.856Z" fill="#EF3E8B"/>
<path d="M140.509 108.325C140.705 106.474 137.801 104.65 134.023 104.25C130.245 103.85 127.023 105.027 126.828 106.877C126.632 108.728 129.536 110.552 133.314 110.952C137.092 111.351 140.313 110.175 140.509 108.325Z" fill="#EF3E8B"/>
<path d="M113.044 205.91L128.693 275.959H178.404L194.053 205.91C194.945 201.914 192.418 197.975 188.948 197.975H118.151C114.678 197.975 112.151 201.904 113.044 205.91Z" fill="white" stroke="#2E186A" stroke-width="1.74194" stroke-linecap="round" stroke-linejoin="round"/>
<path d="M531.485 98.8632L293.471 100.608C291.616 100.622 289.802 101.158 288.238 102.156C286.674 103.153 285.423 104.572 284.628 106.248L207.867 263.63L57.2393 263.773C57.2393 263.773 53.8797 285.837 81.9815 287.196L196.553 286.83L196.22 287.496L458.307 286.58L540.474 112.937C541.187 111.428 541.505 109.763 541.399 108.098C541.293 106.433 540.767 104.822 539.868 103.416C538.97 102.01 537.73 100.855 536.264 100.058C534.797 99.2622 533.153 98.8509 531.485 98.8632Z" fill="#4716BA"/>
<path d="M441.219 284.223L522.148 112.937C522.861 111.428 523.179 109.763 523.073 108.098C522.967 106.433 522.44 104.822 521.542 103.416C520.644 102.01 519.404 100.855 517.938 100.058C516.471 99.2622 514.827 98.8509 513.158 98.8632" stroke="white" stroke-width="1.74194" stroke-linecap="round" stroke-linejoin="round"/>
<path d="M232.909 256.162L429.742 255.163C433.127 255.144 436.439 254.179 439.305 252.379C442.171 250.578 444.478 248.012 445.964 244.971L505.231 119.399C507.778 114.249 503.826 108.326 497.869 108.369L302.794 109.801C301.296 109.797 299.826 110.209 298.546 110.989C297.267 111.769 296.229 112.888 295.546 114.222L226.946 246.659C226.452 247.668 226.223 248.787 226.282 249.909C226.341 251.031 226.685 252.119 227.282 253.07C227.879 254.022 228.71 254.806 229.694 255.346C230.679 255.887 231.786 256.168 232.909 256.162Z" fill="white"/>
<path d="M429.945 177.739H394.675C392.371 177.739 391.428 175.871 392.574 173.567L401.843 154.899C402.989 152.595 405.782 150.727 408.086 150.727H443.36C445.664 150.727 446.603 152.595 445.461 154.899L436.178 173.567C435.046 175.871 432.249 177.739 429.945 177.739Z" fill="#4716BA"/>
<path d="M433.484 150.727C434.866 150.727 435.456 151.792 434.816 153.107L423.769 175.358C423.103 176.69 421.465 177.739 420.083 177.739" stroke="white" stroke-width="1.74194" stroke-linecap="round" stroke-linejoin="round"/>
<path d="M427.242 177.453L418.378 167.701C418.203 167.509 417.984 167.364 417.739 167.279C417.494 167.193 417.232 167.17 416.976 167.212C416.72 167.254 416.478 167.359 416.273 167.517C416.068 167.676 415.906 167.883 415.801 168.12L409.808 181.638C409.689 181.905 409.649 182.2 409.69 182.489C409.732 182.779 409.854 183.05 410.042 183.274C410.231 183.497 410.478 183.663 410.756 183.752C411.035 183.841 411.332 183.85 411.616 183.779L416.66 182.497L417.219 191.819C417.236 192.132 417.321 192.437 417.467 192.714C417.614 192.99 417.818 193.232 418.067 193.422C418.316 193.612 418.603 193.745 418.908 193.814C419.214 193.882 419.531 193.883 419.836 193.817L423.526 193.028C423.826 192.964 424.109 192.836 424.357 192.655C424.604 192.473 424.81 192.24 424.961 191.972C425.112 191.705 425.204 191.408 425.232 191.102C425.259 190.796 425.221 190.488 425.121 190.198L421.987 181.152L426.462 180.016C426.725 179.952 426.966 179.82 427.162 179.634C427.358 179.449 427.503 179.215 427.582 178.956C427.66 178.698 427.67 178.423 427.61 178.159C427.551 177.896 427.424 177.652 427.242 177.453Z" fill="#FEA000"/>
<path d="M414.652 215.918H375.153C373.991 215.918 373.515 214.973 374.094 213.811L378.776 204.385C379.352 203.22 380.774 202.277 381.926 202.277H421.425C422.59 202.277 423.063 203.22 422.487 204.385L417.805 213.811C417.226 214.976 415.814 215.918 414.652 215.918Z" fill="#4716BA"/>
<path d="M505.351 119.503H293.361" stroke="#2E186A" stroke-width="1.74194" stroke-linecap="round" stroke-linejoin="round"/>
<path d="M467.387 109.401L463.008 119.366" stroke="#2E186A" stroke-width="1.74194" stroke-linecap="round" stroke-linejoin="round"/>
<path d="M435.086 109.594L429.988 119.579" stroke="#2E186A" stroke-width="1.74194" stroke-linecap="round" stroke-linejoin="round"/>
<path d="M251.385 245.624L422.926 245.045C425.463 245.03 427.946 244.308 430.094 242.958C432.243 241.609 433.971 239.686 435.086 237.407L482.726 138.451C484.634 134.592 481.67 130.154 477.209 130.184L307.029 131.256C305.905 131.255 304.802 131.565 303.843 132.153C302.885 132.741 302.108 133.583 301.599 134.585L246.92 238.502C246.549 239.258 246.378 240.096 246.421 240.937C246.465 241.777 246.723 242.593 247.17 243.306C247.617 244.019 248.239 244.607 248.977 245.012C249.714 245.418 250.543 245.628 251.385 245.624V245.624Z" stroke="#2E186A" stroke-width="1.74194" stroke-linecap="round" stroke-linejoin="round"/>
<path d="M401.327 262.961H498.302C500.282 262.962 502.181 263.749 503.58 265.149C504.98 266.55 505.767 268.449 505.767 270.429V287.056H393.859V270.429C393.859 269.448 394.052 268.477 394.427 267.571C394.803 266.665 395.353 265.841 396.046 265.148C396.74 264.455 397.563 263.904 398.469 263.529C399.375 263.154 400.346 262.961 401.327 262.961Z" fill="#EF3E8B"/>
<path d="M272.671 224.242H333.566C338.108 224.242 343.865 220.559 346.422 216.018L380.071 156.24C382.628 151.699 381.02 148.016 376.475 148.016H313.056C308.514 148.016 302.757 151.699 300.2 156.24L269.079 216.028C266.521 220.579 268.13 224.242 272.671 224.242Z" fill="#2E186A"/>
<path d="M380.43 51.298C372.363 27.5787 363.559 22.6943 357.323 24.439C351.087 26.1837 334.212 34.554 340.082 42.2285C345.952 49.903 354.4 76.4124 354.4 76.4124C327.989 80.9472 304.489 90.889 304.489 90.889L275.904 102.209C275.904 102.209 263.798 106.394 251.695 117.209C239.592 128.023 215.012 152.441 208.41 161.857C202.936 169.668 206.209 178.601 209.146 181.042C212.082 183.482 216.847 190.111 238.489 182.786C252.411 178.075 263.751 176.251 270.071 175.548L303.034 207.554C303.034 207.554 311.564 214.779 315.467 218.309C315.651 218.887 315.998 219.4 316.465 219.787C322.033 224.142 329.234 224.239 337.891 221.508C342.127 220.181 345.673 217.243 347.764 213.328L379.755 153.25C380.011 152.768 380.156 152.235 380.178 151.689C380.199 151.143 380.098 150.6 379.881 150.099C379.663 149.598 379.336 149.152 378.923 148.795C378.509 148.438 378.021 148.179 377.494 148.036L367.445 145.333C353.274 139.789 341.917 117.572 341.917 117.572C367.222 108.852 387.033 85.4786 387.033 85.4786C387.033 85.4786 388.501 75.0173 380.43 51.298Z" fill="#EF3E8B"/>
<path d="M339.117 123.448H254.112C251.6 123.448 249.564 125.484 249.564 127.996V177.179C249.564 179.691 251.6 181.728 254.112 181.728H339.117C341.629 181.728 343.665 179.691 343.665 177.179V127.996C343.665 125.484 341.629 123.448 339.117 123.448Z" fill="white" stroke="#2E186A" stroke-width="1.74194" stroke-linecap="round" stroke-linejoin="round"/>
<path d="M307.978 129.877H291.447C290.044 129.877 288.906 131.015 288.906 132.418V138.601C288.906 140.004 290.044 141.141 291.447 141.141H307.978C309.381 141.141 310.519 140.004 310.519 138.601V132.418C310.519 131.015 309.381 129.877 307.978 129.877Z" fill="#FEA000"/>
<path d="M313.356 123.448C316.352 123.448 318.756 125.749 318.756 128.582V176.594C318.756 179.43 316.339 181.728 313.356 181.728" fill="white"/>
<path d="M313.356 123.448C316.352 123.448 318.756 125.749 318.756 128.582V176.594C318.756 179.43 316.339 181.728 313.356 181.728" stroke="#2E186A" stroke-width="1.74194" stroke-linecap="round" stroke-linejoin="round"/>
<path d="M258.537 101.527C255.347 101.43 252.78 97.2517 252.78 92.111C252.78 89.3242 253.536 86.8171 254.735 85.0924" stroke="#EF3E8B" stroke-width="1.74194" stroke-linecap="round" stroke-linejoin="round"/>
<path d="M303.66 66.4672C303.97 67.6633 304.125 68.8941 304.123 70.1297C304.123 75.3303 301.492 79.5455 298.252 79.5455C297.992 79.5458 297.732 79.519 297.477 79.4656" stroke="#EF3E8B" stroke-width="1.74194" stroke-linecap="round" stroke-linejoin="round"/>
<path d="M292.762 85.1357L296.644 95.1042L304.868 90.7292C305.694 91.7014 319.059 108.775 301.023 115.551C289.193 119.992 276.094 114.142 268.273 106.714L275.721 102.176L267.803 85.5286L292.762 85.1357Z" fill="white" stroke="#2E186A" stroke-width="1.74194" stroke-linecap="round" stroke-linejoin="round"/>
<path d="M279.687 156.557C281.415 155.465 290.847 151.586 293.152 151.319C295.456 151.053 296.601 152.695 294.8 154.126C292.998 155.558 288.96 158.698 288.96 158.698" fill="white"/>
<path d="M279.687 156.557C281.415 155.465 290.847 151.586 293.152 151.319C295.456 151.053 296.601 152.695 294.8 154.126C292.998 155.558 288.96 158.698 288.96 158.698" stroke="#2E186A" stroke-width="1.74194" stroke-linecap="round" stroke-linejoin="round"/>
<path d="M273.693 156.986C286.532 153.846 299.188 158.614 300.423 159.154C301.659 159.693 302.088 162.09 299.311 162.24C296.534 162.39 287.045 161.018 287.045 161.018C291.194 162.114 300.477 164.664 301.143 165.346C302.165 166.405 300.617 168.513 297.79 167.787L285.943 164.847C285.943 164.847 297.307 169.841 298.263 170.577C299.218 171.313 294.856 173.574 289.536 171.273C284.215 168.972 283.755 169.275 283.755 169.275C283.755 169.275 292.366 172.468 293.495 173.377C294.623 174.286 288.776 177.443 283.033 173.59C283.033 173.59 276.474 176.231 271.12 174.423" fill="white"/>
<path d="M273.693 156.986C286.532 153.846 299.188 158.614 300.423 159.154C301.659 159.693 302.088 162.09 299.311 162.24C296.534 162.39 287.045 161.018 287.045 161.018C291.194 162.114 300.477 164.664 301.143 165.346C302.165 166.405 300.617 168.513 297.79 167.787L285.943 164.847C285.943 164.847 297.307 169.841 298.263 170.577C299.218 171.313 294.856 173.574 289.536 171.273C284.215 168.972 283.755 169.275 283.755 169.275C283.755 169.275 292.366 172.468 293.495 173.377C294.623 174.286 288.776 177.443 283.033 173.59C283.033 173.59 276.474 176.231 271.12 174.423" stroke="#2E186A" stroke-width="1.74194" stroke-linecap="round" stroke-linejoin="round"/>
<path d="M257.551 85.4819C260.996 85.4819 263.788 82.8271 263.788 79.5521C263.788 76.2772 260.996 73.6223 257.551 73.6223C254.107 73.6223 251.315 76.2772 251.315 79.5521C251.315 82.8271 254.107 85.4819 257.551 85.4819Z" fill="white" stroke="#2E186A" stroke-width="1.74194" stroke-linecap="round" stroke-linejoin="round"/>
<path d="M295.332 65.2519C298.777 65.2519 301.569 62.597 301.569 59.3221C301.569 56.0471 298.777 53.3922 295.332 53.3922C291.888 53.3922 289.096 56.0471 289.096 59.3221C289.096 62.597 291.888 65.2519 295.332 65.2519Z" fill="white" stroke="#2E186A" stroke-width="1.74194" stroke-linecap="round" stroke-linejoin="round"/>
<path d="M290.962 88.6756C299.773 82.2978 300.269 67.947 292.071 56.6221C283.873 45.2972 270.085 41.2868 261.274 47.6646C252.463 54.0424 251.966 68.3932 260.164 79.7181C268.362 91.0429 282.151 95.0534 290.962 88.6756Z" fill="white" stroke="#2E186A" stroke-width="1.74194" stroke-linecap="round" stroke-linejoin="round"/>
<path d="M287.102 73.316C285.796 75.024 283.063 77.4512 277.872 77.9174C277.659 77.9348 277.455 78.0112 277.283 78.138C277.111 78.2648 276.977 78.4371 276.897 78.6354C276.817 78.8338 276.794 79.0504 276.831 79.2611C276.867 79.4718 276.961 79.6683 277.103 79.8285C278.907 81.8495 282.334 84.553 286.566 82.4921C290.857 80.3945 290.052 76.1427 289.086 73.6156C289.013 73.4248 288.891 73.2567 288.732 73.1285C288.574 73.0004 288.383 72.9168 288.181 72.8863C287.98 72.8558 287.773 72.8795 287.583 72.955C287.394 73.0305 287.227 73.1551 287.102 73.316V73.316Z" stroke="#2E186A" stroke-width="1.74194" stroke-linecap="round" stroke-linejoin="round"/>
<path d="M280.316 72.8332L284.322 70.7556L276.99 62.1122" stroke="#2E186A" stroke-width="1.74194" stroke-linecap="round" stroke-linejoin="round"/>
<path d="M263.991 62.7914C263.991 62.7914 265.709 58.6729 269.282 59.7217" stroke="#2E186A" stroke-width="1.74194" stroke-linecap="round" stroke-linejoin="round"/>
<path d="M277.273 55.4366C277.273 55.4366 280.423 52.1737 283.366 54.3645" stroke="#2E186A" stroke-width="1.74194" stroke-linecap="round" stroke-linejoin="round"/>
<path d="M271.187 69.8229C271.947 69.4907 272.161 68.3021 271.665 67.1683C271.169 66.0344 270.151 65.3846 269.391 65.7169C268.632 66.0492 268.418 67.2377 268.913 68.3716C269.409 69.5054 270.427 70.1552 271.187 69.8229Z" fill="#2E186A"/>
<path d="M285.375 63.9696C286.093 63.5614 286.177 62.3545 285.562 61.274C284.947 60.1935 283.867 59.6485 283.15 60.0567C282.432 60.4649 282.348 61.6717 282.963 62.7522C283.578 63.8327 284.658 64.3778 285.375 63.9696Z" fill="#2E186A"/>
<path d="M244.892 47.7788C249.803 40.9833 246.118 14.7635 223.366 3.65965C200.332 -7.58072 191.159 14.3573 189.345 19.9442C187.53 25.5311 189.065 38.8058 208.09 45.7378C227.116 52.6698 239.285 55.5398 244.892 47.7788Z" fill="#2E186A"/>
<path d="M250.12 56.8383L243.014 52.2203C242.416 51.8477 241.901 51.3563 241.5 50.7764C241.099 50.1966 240.822 49.5406 240.685 48.8492C240.549 48.1578 240.555 47.4457 240.705 46.757C240.855 46.0682 241.145 45.4176 241.556 44.8454L241.849 44.4426C242.724 43.2702 244.012 42.4745 245.452 42.2167C246.892 41.9589 248.376 42.2583 249.604 43.0542L256.712 47.6722L250.12 56.8383Z" fill="#EF3E8B"/>
<path d="M295.336 44.6724C295.336 44.6724 291.154 21.2327 259.682 41.6758C254.482 44.5725 249.287 50.5023 247.283 56.885C244.176 66.7736 250.945 81.6531 257.938 79.5588C258.514 79.3844 259.08 79.181 259.636 78.9495C259.403 78.6166 259.173 78.2536 258.95 77.8974C258.163 76.6342 257.464 75.3181 256.859 73.9586C264.111 66.4506 258.62 53.6487 258.051 52.4867C260.641 53.0893 263.515 54.0749 264.214 57.1813L284.348 49.0806C287.951 51.5552 291.001 54.7514 293.305 58.4665C293.338 58.5164 293.365 58.5663 293.395 58.6163C293.981 55.1203 292.126 50.9984 288.523 47.4026L295.336 44.6724Z" fill="#2E186A"/>
<path d="M208.397 161.874C201.794 168.866 206.196 178.618 209.132 181.058C212.069 183.499 216.834 190.128 238.476 182.803C252.397 178.092 263.738 176.267 270.057 175.565C270.057 175.565 275.891 160.828 271.855 149.318C271.855 149.318 250.213 148.969 234.074 155.594" fill="#EF3E8B"/>
<path d="M350.477 18.0231C349.582 16.1919 347.387 11.4207 347.617 9.15002C347.92 6.18344 345.576 4.03259 343.955 7.75496C342.333 11.4773 343.828 15.809 343.828 15.809" fill="white"/>
<path d="M350.477 18.0231C349.582 16.1919 347.387 11.4207 347.617 9.15002C347.92 6.18344 345.576 4.03259 343.955 7.75496C342.333 11.4773 343.828 15.809 343.828 15.809" stroke="#2E186A" stroke-width="1.74194" stroke-linecap="round" stroke-linejoin="round"/>
<path d="M344.494 28.8639L350.451 38.8058C354.836 37.7004 359.327 35.0534 361.951 30.1291C357.396 24.3291 349.748 14.8301 348.153 14.324C343.752 12.9289 337.029 13.3451 335.704 13.7513C332.89 14.6137 334.372 16.3383 337.329 16.5714C340.152 16.7978 345.257 17.2373 345.257 17.2373C340.845 17.3239 335.358 17.6635 334.528 18.2162C333.267 19.0652 334.332 21.4957 337.325 21.3526L345.852 21.2327C345.852 21.2327 336.29 22.2748 335.124 22.7776C333.959 23.2803 334.089 26.5599 339.982 25.5977C345.876 24.6354 346.279 25.0283 346.279 25.0283C346.279 25.0283 339.143 26.5332 337.782 27.1559C336.42 27.7785 337.755 31.2678 344.494 28.8639Z" fill="white" stroke="#2E186A" stroke-width="1.74194" stroke-linecap="round" stroke-linejoin="round"/>
<path d="M258.65 82.6918C261.893 82.6918 264.52 86.9102 264.52 92.1109C264.52 97.3116 261.893 101.53 258.65 101.53H258.537" stroke="#EF3E8B" stroke-width="1.74194" stroke-linecap="round" stroke-linejoin="round"/>
<path d="M298.266 60.7171C300.696 60.7171 302.784 63.0877 303.673 66.4672" stroke="#EF3E8B" stroke-width="1.74194" stroke-linecap="round" stroke-linejoin="round"/>
<path d="M282.191 190.844L269.079 216.028C266.521 220.579 268.13 224.242 272.671 224.242H333.566C338.108 224.242 343.865 220.559 346.422 216.018L380.071 156.24C382.628 151.699 381.02 148.016 376.475 148.016" stroke="#2E186A" stroke-width="1.74194" stroke-linecap="round" stroke-linejoin="round"/>
<path d="M537 286.5L59.9999 287.5" stroke="#2E186A" stroke-width="1.74194" stroke-linecap="round" stroke-linejoin="round"/>
<g clip-path="url(#clip1_1101_1643)">
<path fill-rule="evenodd" clip-rule="evenodd" d="M173.003 229.778C173.003 240.498 164.313 249.188 153.593 249.188C142.873 249.188 134.183 240.498 134.183 229.778C134.183 219.059 142.873 210.369 153.593 210.369C164.313 210.369 173.003 219.059 173.003 229.778ZM159.572 221.46H154.46H150.387L149.694 217.734L146.661 225.619H148.047H151.08H152.813H157.926L156.193 229.778H160.785L162.431 225.619C163.211 223.626 161.738 221.46 159.659 221.46H159.572ZM160.439 233.938H159.139H156.019H154.546H149.434L151.08 229.778H146.401L144.755 233.938C143.975 235.93 145.448 238.097 147.527 238.097H147.787H152.9H156.799L157.492 241.823L160.439 233.938Z" fill="#4716BA"/>
</g>
</g>
<defs>
<clipPath id="clip0_1101_1643">
<rect width="595" height="289" fill="white" transform="translate(0 0.5)"/>
</clipPath>
<clipPath id="clip1_1101_1643">
<rect width="38.9934" height="38.9921" fill="white" transform="translate(134.183 210.369)"/>
</clipPath>
</defs>
</svg>
