<svg width="211" height="59" viewBox="0 0 211 59" fill="none" xmlns="http://www.w3.org/2000/svg">
<path fill-rule="evenodd" clip-rule="evenodd" d="M59.1209 29.5C59.1209 45.6683 46.014 58.7752 29.8457 58.7752C13.6775 58.7752 0.570557 45.6683 0.570557 29.5C0.570557 13.3318 13.6775 0.224854 29.8457 0.224854C46.014 0.224854 59.1209 13.3318 59.1209 29.5ZM38.8636 16.953H31.1527H25.0101L23.9646 11.3333L19.3903 23.2263H21.4814H26.0557H28.6695H36.3804L33.7665 29.4995H40.6932L43.1764 23.2263C44.3526 20.2204 42.1309 16.953 38.9943 16.953H38.8636ZM40.1706 35.7725H38.2102H33.5052H31.2835H23.5726L26.0558 29.4993H18.9984L16.5152 35.7725C15.339 38.7784 17.5607 42.0457 20.6974 42.0457H21.0894H28.8003H34.6815L35.727 47.6655L40.1706 35.7725Z" fill="white"/>
<path d="M77.8099 52.2409C77.0257 52.2409 76.2416 51.9795 75.7188 51.3261C75.0653 50.8033 74.804 50.0191 74.804 49.1043V9.76578C74.804 8.85093 75.0653 8.19746 75.7188 7.544C76.3723 7.02123 77.0257 6.62915 77.8099 6.62915C78.7247 6.62915 79.3782 6.89054 80.0317 7.544C80.5544 8.06677 80.9465 8.85093 80.9465 9.76578V27.2786L100.289 7.93608C100.812 7.41331 101.204 7.15192 101.596 7.02123C101.988 6.89053 102.38 6.75984 102.772 6.75984C103.687 6.75984 104.471 7.02123 104.863 7.67469C105.255 8.19746 105.386 8.98162 105.386 9.76578C105.255 10.5499 104.863 11.3341 104.341 11.9876L89.4415 26.8865L104.471 47.4053C104.994 48.0587 105.125 48.7122 104.994 49.4964C104.863 50.2805 104.602 50.934 104.21 51.4568C103.818 51.9795 103.164 52.2409 102.38 52.2409C101.335 52.2409 100.42 51.8488 99.897 50.934L85.1287 30.938L80.9465 35.1202V49.235C80.9465 50.1498 80.6851 50.8033 80.0317 51.4568C79.3782 51.9795 78.7247 52.2409 77.8099 52.2409Z" fill="white"/>
<path d="M102.38 53.2863C100.943 53.2863 99.7666 52.6328 98.9824 51.5873L84.9983 32.6368L81.9924 35.6427V49.2348C81.9924 50.411 81.6003 51.3259 80.8161 52.11C79.2478 53.6783 76.634 53.6783 75.0656 52.11C74.2815 51.3259 73.8894 50.2803 73.8894 49.2348V9.76559C73.8894 8.58935 74.2815 7.6745 75.0656 6.89035C76.634 5.32204 79.2478 5.32204 80.8161 6.89035C81.6003 7.6745 81.9924 8.58935 81.9924 9.76559V24.7953L99.5052 7.28243C100.028 6.75965 100.551 6.36757 101.073 6.10619C101.596 5.8448 102.119 5.71411 102.772 5.71411C104.472 5.71411 105.256 6.36757 105.778 7.02104C106.432 7.8052 106.563 8.85074 106.432 9.89628C106.301 10.9418 105.778 11.8567 104.994 12.6408L90.7488 27.017L105.386 46.8823C106.04 47.7972 106.301 48.712 106.171 49.7576C106.04 50.8031 105.648 51.5873 105.125 52.2407C104.341 52.8942 103.426 53.2863 102.38 53.2863ZM85.129 29.3695L100.551 50.411C100.943 51.0645 101.466 51.3259 102.25 51.3259C102.903 51.3259 103.165 51.0645 103.295 50.9338C103.557 50.5417 103.818 50.1496 103.818 49.6269C103.818 49.1041 103.687 48.712 103.426 48.1893L87.7428 26.8863L103.295 11.3339C103.818 10.8111 104.079 10.2884 104.079 9.76559C104.21 9.24282 104.079 8.85074 103.818 8.45866C103.687 8.32797 103.426 8.06658 102.511 8.06658C102.25 8.06658 101.988 8.06658 101.727 8.19728C101.596 8.32797 101.204 8.45866 100.812 8.98143L79.7706 30.023V9.76559C79.7706 9.24282 79.6399 8.72004 79.2478 8.32797C78.4636 7.54381 77.2874 7.54381 76.3726 8.32797C75.9805 8.72004 75.8498 9.11213 75.8498 9.76559V49.2348C75.8498 49.7576 75.9805 50.2803 76.3726 50.6724C77.1567 51.4566 78.4636 51.4566 79.2478 50.6724C79.6399 50.2803 79.7706 49.8883 79.7706 49.2348V34.7279L85.129 29.3695Z" fill="white"/>
<path d="M124.075 52.5029C120.939 52.5029 118.194 51.8494 115.711 50.4118C113.358 48.9742 111.398 47.1445 109.96 44.6613C108.523 42.1781 107.869 39.4336 107.869 36.297C107.869 33.1603 108.523 30.2851 109.96 27.9326C111.398 25.4495 113.228 23.6198 115.711 22.1821C118.063 20.7445 120.939 20.0911 124.075 20.0911C127.212 20.0911 129.956 20.7445 132.309 22.1821C134.661 23.6198 136.622 25.4495 138.059 27.9326C139.497 30.4158 140.15 33.1603 140.15 36.297C140.15 39.4336 139.497 42.1781 138.059 44.6613C136.752 47.1445 134.792 48.9742 132.44 50.4118C129.956 51.7187 127.212 52.5029 124.075 52.5029ZM124.075 47.1445C126.036 47.1445 127.865 46.6217 129.434 45.7068C131.002 44.792 132.178 43.4851 133.093 41.9167C134.008 40.3484 134.4 38.388 134.4 36.297C134.4 34.2059 134.008 32.2455 133.093 30.5465C132.178 28.8475 131.002 27.5405 129.434 26.6257C127.865 25.7109 126.036 25.1881 124.075 25.1881C122.115 25.1881 120.285 25.7109 118.717 26.6257C117.149 27.5405 115.972 28.8475 115.057 30.5465C114.143 32.2455 113.751 34.0752 113.751 36.297C113.751 38.388 114.143 40.3484 115.057 41.9167C115.972 43.6157 117.149 44.792 118.717 45.7068C120.285 46.7524 122.115 47.1445 124.075 47.1445Z" fill="white"/>
<path d="M124.076 53.548C120.808 53.548 117.802 52.7639 115.188 51.3263C112.575 49.8886 110.614 47.7976 109.177 45.1837C107.739 42.5699 106.955 39.5639 106.955 36.2966C106.955 32.8986 107.739 29.8927 109.177 27.4095C110.614 24.7956 112.705 22.8353 115.188 21.2669C117.802 19.8293 120.678 19.0452 124.076 19.0452C127.343 19.0452 130.349 19.8293 132.832 21.2669C135.446 22.7046 137.406 24.7956 138.844 27.4095C140.281 30.0234 141.066 33.0293 141.066 36.2966C141.066 39.5639 140.281 42.5699 138.844 45.1837C137.406 47.7976 135.315 49.8886 132.832 51.3263C130.349 52.7639 127.343 53.548 124.076 53.548ZM124.076 21.1362C121.07 21.1362 118.456 21.7897 116.234 23.0966C114.012 24.4036 112.183 26.1026 110.876 28.455C109.569 30.6768 108.915 33.4214 108.915 36.4273C108.915 39.4332 109.569 42.0471 110.876 44.2689C112.183 46.4906 113.882 48.3203 116.234 49.6273C118.456 50.9342 121.07 51.5877 124.076 51.5877C127.082 51.5877 129.695 50.9342 131.917 49.6273C134.139 48.3203 135.969 46.6213 137.145 44.2689C138.452 42.0471 139.105 39.3025 139.105 36.4273C139.105 33.4214 138.452 30.8075 137.145 28.455C135.838 26.2333 134.139 24.4036 131.786 23.0966C129.565 21.7897 126.951 21.1362 124.076 21.1362ZM124.076 48.1896C121.854 48.1896 119.893 47.6669 118.194 46.6213C116.495 45.5758 115.058 44.1382 114.143 42.4392C113.228 40.6095 112.705 38.6491 112.705 36.2966C112.705 33.9441 113.228 31.8531 114.143 30.154C115.058 28.3244 116.495 26.8867 118.194 25.8412C119.893 24.7956 121.854 24.2729 124.076 24.2729C126.297 24.2729 128.258 24.7956 129.957 25.8412C131.656 26.8867 132.963 28.3244 134.008 30.154C134.923 31.9837 135.446 34.0748 135.446 36.2966C135.446 38.6491 134.923 40.6095 134.008 42.4392C133.093 44.2689 131.656 45.7065 129.957 46.752C128.258 47.7976 126.297 48.1896 124.076 48.1896ZM124.076 26.364C122.246 26.364 120.678 26.756 119.24 27.6709C117.802 28.455 116.757 29.6313 115.973 31.1996C115.188 32.6372 114.796 34.4669 114.796 36.4273C114.796 38.3877 115.188 40.0867 115.973 41.5243C116.757 42.9619 117.933 44.1382 119.24 44.9223C121.984 46.6213 126.167 46.6213 128.911 44.9223C130.349 44.1382 131.394 42.9619 132.179 41.5243C132.963 40.0867 133.355 38.257 133.355 36.2966C133.355 34.3362 132.963 32.6372 132.179 31.0689C131.394 29.6313 130.349 28.455 128.911 27.5402C127.474 26.756 125.905 26.364 124.076 26.364Z" fill="white"/>
<path d="M149.692 25.8409C147.862 25.8409 146.947 24.9261 146.947 23.0964C146.947 21.2667 147.862 20.3518 149.692 20.3518H169.557C171.387 20.3518 172.301 21.2667 172.301 23.0964C172.301 24.9261 171.387 25.8409 169.557 25.8409H149.692ZM150.214 52.2408C148.385 52.2408 147.47 51.326 147.47 49.4963C147.47 47.6666 148.385 46.7517 150.214 46.7517H170.08C171.909 46.7517 172.824 47.6666 172.824 49.4963C172.824 51.326 171.909 52.2408 170.08 52.2408H150.214ZM152.044 51.0646L148.123 47.5359L167.989 21.3974L171.909 24.9261L152.044 51.0646Z" fill="white"/>
<path d="M170.21 53.286H150.214C147.862 53.286 146.424 51.8484 146.424 49.4959C146.424 48.8425 146.555 48.3197 146.685 47.9276L146.555 47.7969L147.077 47.1435C147.208 47.0128 147.208 46.8821 147.339 46.8821L162.499 26.8861H149.691C147.339 26.8861 145.901 25.4485 145.901 23.096C145.901 20.7435 147.339 19.3059 149.691 19.3059H169.557C171.909 19.3059 173.347 20.7435 173.347 23.096C173.347 23.7495 173.216 24.2722 173.085 24.795L173.216 24.9257L172.693 25.5792C172.562 25.7099 172.562 25.8405 172.432 25.8405L157.271 45.8365H169.949C172.301 45.8365 173.739 47.2742 173.739 49.6266C173.739 51.9791 172.562 53.286 170.21 53.286ZM153.22 51.1949H170.079C171.386 51.1949 171.778 50.8029 171.778 49.4959C171.778 48.189 171.386 47.7969 170.079 47.7969H155.703L153.22 51.1949ZM148.515 49.4959C148.515 50.8029 148.907 51.1949 150.214 51.1949H150.475L148.515 49.4959ZM149.822 47.7969L151.782 49.6266L153.089 47.7969H150.214C150.083 47.7969 149.953 47.7969 149.822 47.7969ZM150.867 45.7058H154.788L169.034 26.8861H165.113L150.867 45.7058ZM166.681 24.795H169.557C169.687 24.795 169.818 24.795 169.949 24.795L167.988 22.9653L166.681 24.795ZM149.691 21.397C148.384 21.397 147.992 21.7891 147.992 23.096C147.992 24.4029 148.384 24.795 149.691 24.795H164.067L166.681 21.397H149.691ZM169.426 21.397L171.256 23.096C171.256 21.7891 170.863 21.397 169.557 21.397H169.426Z" fill="white"/>
<path d="M193.734 52.5029C190.598 52.5029 187.853 51.8494 185.37 50.4118C183.018 48.9742 181.057 47.1445 179.62 44.6613C178.182 42.1781 177.529 39.4336 177.529 36.297C177.529 33.1603 178.182 30.2851 179.62 27.9326C181.057 25.4495 182.887 23.6198 185.37 22.1821C187.723 20.7445 190.598 20.0911 193.734 20.0911C196.871 20.0911 199.616 20.7445 201.968 22.1821C204.321 23.6198 206.281 25.4495 207.719 27.9326C209.156 30.4158 209.81 33.1603 209.81 36.297C209.81 39.4336 209.156 42.1781 207.719 44.6613C206.412 47.1445 204.451 48.9742 202.099 50.4118C199.746 51.7187 196.871 52.5029 193.734 52.5029ZM193.734 47.1445C195.695 47.1445 197.525 46.6217 199.093 45.7068C200.661 44.792 201.837 43.4851 202.752 41.9167C203.667 40.3484 204.059 38.388 204.059 36.297C204.059 34.2059 203.667 32.2455 202.752 30.5465C201.837 28.8475 200.661 27.5405 199.093 26.6257C197.525 25.7109 195.695 25.1881 193.734 25.1881C191.774 25.1881 189.944 25.7109 188.376 26.6257C186.808 27.5405 185.632 28.8475 184.717 30.5465C183.802 32.2455 183.41 34.0752 183.41 36.297C183.41 38.388 183.802 40.3484 184.717 41.9167C185.632 43.6157 186.808 44.792 188.376 45.7068C189.944 46.7524 191.774 47.1445 193.734 47.1445Z" fill="white"/>
<path d="M193.735 53.548C190.467 53.548 187.462 52.7639 184.848 51.3263C182.234 49.8886 180.273 47.7976 178.836 45.1837C177.398 42.5699 176.614 39.5639 176.614 36.2966C176.614 32.8986 177.398 29.8927 178.836 27.4095C180.273 24.7956 182.364 22.8353 184.848 21.2669C187.462 19.8293 190.337 19.0452 193.735 19.0452C197.002 19.0452 200.008 19.8293 202.491 21.2669C205.105 22.7046 207.065 24.7956 208.503 27.4095C209.941 30.0234 210.725 33.0293 210.725 36.2966C210.725 39.5639 209.941 42.5699 208.503 45.1837C207.065 47.7976 204.974 49.8886 202.491 51.3263C200.139 52.7639 197.133 53.548 193.735 53.548ZM193.735 21.1362C190.729 21.1362 188.115 21.7897 185.893 23.0966C183.671 24.4036 181.842 26.1026 180.535 28.455C179.228 30.6768 178.574 33.4214 178.574 36.4273C178.574 39.4332 179.228 42.0471 180.535 44.2689C181.842 46.4906 183.541 48.3203 185.893 49.6273C188.115 50.9342 190.729 51.5877 193.735 51.5877C196.741 51.5877 199.355 50.9342 201.576 49.6273C203.798 48.3203 205.628 46.6213 206.804 44.2689C208.111 42.0471 208.764 39.3025 208.764 36.4273C208.764 33.4214 208.111 30.8075 206.804 28.455C205.497 26.2333 203.798 24.4036 201.446 23.0966C199.355 21.7897 196.741 21.1362 193.735 21.1362ZM193.735 48.1896C191.513 48.1896 189.553 47.6669 187.854 46.6213C186.155 45.5758 184.717 44.1382 183.802 42.4392C182.887 40.6095 182.365 38.6491 182.365 36.2966C182.365 33.9441 182.887 31.8531 183.802 30.154C184.717 28.3244 186.155 26.8867 187.854 25.8412C189.553 24.7956 191.513 24.2729 193.735 24.2729C195.957 24.2729 197.917 24.7956 199.616 25.8412C201.315 26.8867 202.622 28.3244 203.667 30.154C204.582 31.9837 205.105 34.0748 205.105 36.2966C205.105 38.6491 204.582 40.6095 203.667 42.4392C202.753 44.2689 201.315 45.7065 199.616 46.752C197.917 47.7976 195.957 48.1896 193.735 48.1896ZM193.735 26.364C191.905 26.364 190.337 26.756 188.899 27.6709C187.462 28.455 186.416 29.6313 185.632 31.1996C184.848 32.6372 184.456 34.4669 184.456 36.4273C184.456 38.3877 184.848 40.0867 185.632 41.5243C186.416 42.9619 187.592 44.1382 188.899 44.9223C191.644 46.6213 195.826 46.6213 198.57 44.9223C200.008 44.1382 201.054 42.9619 201.838 41.5243C202.622 40.0867 203.014 38.257 203.014 36.2966C203.014 34.3362 202.622 32.6372 201.838 31.0689C201.054 29.6313 200.008 28.455 198.57 27.5402C197.263 26.756 195.564 26.364 193.735 26.364Z" fill="white"/>
</svg>
