<svg width="31" height="30" viewBox="0 0 31 30" fill="none" xmlns="http://www.w3.org/2000/svg">
<path d="M26.75 14.375C26.7543 16.0249 26.3688 17.6524 25.625 19.125C24.743 20.8897 23.3872 22.374 21.7093 23.4116C20.0314 24.4493 18.0978 24.9993 16.125 25C14.4752 25.0043 12.8476 24.6189 11.375 23.875L4.25 26.25L6.625 19.125C5.88116 17.6524 5.4957 16.0249 5.5 14.375C5.50076 12.4022 6.05076 10.4686 7.0884 8.79072C8.12603 7.11285 9.61032 5.75699 11.375 4.87504C12.8476 4.1312 14.4752 3.74573 16.125 3.75004H16.75C19.3554 3.89378 21.8163 4.99349 23.6614 6.83861C25.5065 8.68373 26.6063 11.1446 26.75 13.75V14.375Z" stroke="#EF3E8B" stroke-width="2.5" stroke-linecap="round" stroke-linejoin="round"/>
</svg>
