<svg width="31" height="30" viewBox="0 0 31 30" fill="none" xmlns="http://www.w3.org/2000/svg">
<g clip-path="url(#clip0_1101_1821)">
<path d="M20.5 26.25V23.75C20.5 22.4239 19.9732 21.1521 19.0355 20.2145C18.0979 19.2768 16.8261 18.75 15.5 18.75H6.75C5.42392 18.75 4.15215 19.2768 3.21447 20.2145C2.27678 21.1521 1.75 22.4239 1.75 23.75V26.25" stroke="#EF3E8B" stroke-width="2.5" stroke-linecap="round" stroke-linejoin="round"/>
<path d="M11.125 13.75C13.8864 13.75 16.125 11.5114 16.125 8.75C16.125 5.98858 13.8864 3.75 11.125 3.75C8.36358 3.75 6.125 5.98858 6.125 8.75C6.125 11.5114 8.36358 13.75 11.125 13.75Z" stroke="#EF3E8B" stroke-width="2.5" stroke-linecap="round" stroke-linejoin="round"/>
<path d="M21.75 13.75L24.25 16.25L29.25 11.25" stroke="#EF3E8B" stroke-width="2.5" stroke-linecap="round" stroke-linejoin="round"/>
</g>
<defs>
<clipPath id="clip0_1101_1821">
<rect width="30" height="30" fill="white" transform="translate(0.5)"/>
</clipPath>
</defs>
</svg>
