<svg width="30" height="31" viewBox="0 0 30 31" fill="none" xmlns="http://www.w3.org/2000/svg">
<path d="M20 26.75V24.25C20 22.9239 19.4732 21.6521 18.5355 20.7145C17.5979 19.7768 16.3261 19.25 15 19.25H6.25C4.92392 19.25 3.65215 19.7768 2.71447 20.7145C1.77678 21.6521 1.25 22.9239 1.25 24.25V26.75" stroke="#4716BA" stroke-width="2" stroke-linecap="round" stroke-linejoin="round"/>
<path d="M10.625 14.25C13.3864 14.25 15.625 12.0114 15.625 9.25C15.625 6.48858 13.3864 4.25 10.625 4.25C7.86358 4.25 5.625 6.48858 5.625 9.25C5.625 12.0114 7.86358 14.25 10.625 14.25Z" stroke="#4716BA" stroke-width="2" stroke-linecap="round" stroke-linejoin="round"/>
<path d="M21.25 14.25L23.75 16.75L28.75 11.75" stroke="#4716BA" stroke-width="2" stroke-linecap="round" stroke-linejoin="round"/>
</svg>
